<svg xmlns="http://www.w3.org/2000/svg" viewBox="0 0 32 32" role="img" aria-labelledby="title desc">
  <title id="title">Boundver small logo</title>
  <desc id="desc">A simplified geometric B whose middle boundary opens around a cyan diamond.</desc>
  <path
    fill="#6674f8"
    fill-rule="evenodd"
    d="M4 2h12.5c6.2 0 10 3 10 8 0 .7-.1 1.4-.3 2L23 12l-4 4 4 4c2.7 1.5 4 3.2 4 5 0 3.8-3.8 5-10 5H4V2Zm4 4v7h8.5c3.4 0 5.2-1.2 5.2-3.5S19.9 6 16.5 6H8Zm0 13v7h9c3.8 0 5.7-1.2 5.7-3.5S20.8 19 17 19H8Z"
  />
  <path fill="#08b8d1" d="m25 12 4 4-4 4-4-4 4-4Z" />
</svg>
